<?xml version="1.0" encoding="UTF-8" standalone="no"?>
<svg
   xmlns:dc="http://purl.org/dc/elements/1.1/"
   xmlns:cc="http://creativecommons.org/ns#"
   xmlns:rdf="http://www.w3.org/1999/02/22-rdf-syntax-ns#"
   xmlns:svg="http://www.w3.org/2000/svg"
   xmlns="http://www.w3.org/2000/svg"
   xmlns:sodipodi="http://sodipodi.sourceforge.net/DTD/sodipodi-0.dtd"
   xmlns:inkscape="http://www.inkscape.org/namespaces/inkscape"
   viewBox="0 0 966.03871 437.94962"
   height="437.94962"
   width="966.03876"
   xml:space="preserve"
   version="1.1"
   id="svg2"
   inkscape:version="0.91 r13725"
   sodipodi:docname="poware-logo.svg"><sodipodi:namedview
     pagecolor="#ffffff"
     bordercolor="#666666"
     borderopacity="1"
     objecttolerance="10"
     gridtolerance="10"
     guidetolerance="10"
     inkscape:pageopacity="0"
     inkscape:pageshadow="2"
     inkscape:window-width="1920"
     inkscape:window-height="1004"
     id="namedview14"
     showgrid="false"
     inkscape:zoom="0.63432763"
     inkscape:cx="665.54292"
     inkscape:cy="379.05332"
     inkscape:window-x="0"
     inkscape:window-y="0"
     inkscape:window-maximized="1"
     inkscape:current-layer="g10"
     fit-margin-top="0"
     fit-margin-left="0"
     fit-margin-right="0"
     fit-margin-bottom="0" /><metadata
     id="metadata8"><rdf:RDF><cc:Work
         rdf:about=""><dc:format>image/svg+xml</dc:format><dc:type
           rdf:resource="http://purl.org/dc/dcmitype/StillImage" /><dc:title></dc:title></cc:Work></rdf:RDF></metadata><defs
     id="defs6" /><g
     transform="matrix(1.25,0,0,-1.25,-15.037125,606.5555)"
     id="g10"><g
       transform="translate(12.0297,270.6111)"
       id="g12"><path
         id="path14"
         style="fill:#393536;fill-opacity:1;fill-rule:nonzero;stroke:none"
         d="m 0,0 693.639,0 79.192,78.907 -693.933,0 L 0,0 Z"
         inkscape:connector-curvature="0" /></g><g
       transform="translate(453.0599,362.5664)"
       id="g16"><path
         id="path18"
         style="fill:#751216;fill-opacity:1;fill-rule:nonzero;stroke:none"
         d="m 0,0 -350.065,0 122.996,122.678 0,-61.339 L 0,0 Z"
         inkscape:connector-curvature="0" /></g><g
       transform="translate(342.0226,257.5627)"
       id="g20"><path
         id="path22"
         style="fill:#182b59;fill-opacity:1;fill-rule:nonzero;stroke:none"
         d="m 0,0 350.065,0 -122.996,-122.678 0,61.339 L 0,0 Z"
         inkscape:connector-curvature="0" /></g><path
       inkscape:connector-curvature="0"
       id="path3202"
       style="font-variant:normal;font-weight:normal;font-stretch:normal;font-size:medium;font-family:Aller;-inkscape-font-specification:Aller;writing-mode:lr-tb;fill:#ffffff;fill-opacity:1;fill-rule:nonzero;stroke:none"
       d="m 358.05459,342.91654 0,-30.85109 13.96822,0 q 7.75402,0 11.98848,4.01449 4.23446,4.01449 4.23446,11.43855 0,7.36907 -4.23446,11.38356 -4.23446,4.01449 -11.98848,4.01449 l -13.96822,0 z m -11.10859,9.12884 25.07681,0 q 13.80325,0 20.84236,-6.26921 7.0941,-6.21421 7.0941,-18.25768 0,-12.15346 -7.0941,-18.36767 -7.03911,-6.21421 -20.84236,-6.21421 l -13.96822,0 0,-32.99581 -11.10859,0 0,82.10458 z" /><path
       inkscape:connector-curvature="0"
       id="path3204"
       style="font-variant:normal;font-weight:normal;font-stretch:normal;font-size:medium;font-family:Aller;-inkscape-font-specification:Aller;writing-mode:lr-tb;fill:#ffffff;fill-opacity:1;fill-rule:nonzero;stroke:none"
       d="m 437.26037,344.51133 q -12.09846,0 -19.24755,-9.01885 -7.0941,-9.01886 -7.0941,-24.58188 0,-15.50803 7.0941,-24.52689 7.14909,-9.01885 19.24755,-9.01885 12.09847,0 19.13757,9.01885 7.0941,9.01886 7.0941,24.52689 0,15.56302 -7.0941,24.58188 -7.0391,9.01885 -19.13757,9.01885 z m 0,9.01886 q 17.26781,0 27.6065,-11.60353 10.33868,-11.54853 10.33868,-31.01606 0,-19.41254 -10.33868,-31.01606 -10.33869,-11.54854 -27.6065,-11.54854 -17.3228,0 -27.71648,11.54854 -10.33869,11.54853 -10.33869,31.01606 0,19.46753 10.33869,31.01606 10.39368,11.60353 27.71648,11.60353 z" /><path
       inkscape:connector-curvature="0"
       id="path3206"
       style="font-variant:normal;font-weight:normal;font-stretch:normal;font-size:medium;font-family:Aller;-inkscape-font-specification:Aller;writing-mode:lr-tb;fill:#ffffff;fill-opacity:1;fill-rule:nonzero;stroke:none"
       d="m 465.54745,352.04538 11.21858,0 17.26781,-69.40119 17.21281,69.40119 12.48342,0 17.2678,-69.40119 17.21282,69.40119 11.27357,0 -20.62238,-82.10458 -13.96823,0 -17.3228,71.27095 -17.48778,-71.27095 -13.96823,0 -20.56739,82.10458 z" /><path
       inkscape:connector-curvature="0"
       id="path3208"
       style="font-variant:normal;font-weight:normal;font-stretch:normal;font-size:medium;font-family:Aller;-inkscape-font-specification:Aller;writing-mode:lr-tb;fill:#ffffff;fill-opacity:1;fill-rule:nonzero;stroke:none"
       d="m 592.54349,341.10177 -15.06809,-40.85982 30.19117,0 -15.12308,40.85982 z m -6.26921,10.94361 12.59341,0 31.29102,-82.10458 -11.54853,0 -7.47905,21.06233 -37.0103,0 -7.47905,-21.06233 -11.71352,0 31.34602,82.10458 z" /><path
       inkscape:connector-curvature="0"
       id="path3210"
       style="font-variant:normal;font-weight:normal;font-stretch:normal;font-size:medium;font-family:Aller;-inkscape-font-specification:Aller;writing-mode:lr-tb;fill:#ffffff;fill-opacity:1;fill-rule:nonzero;stroke:none"
       d="m 669.02208,308.43591 q 3.57454,-1.20984 6.92912,-5.16934 3.40956,-3.9595 6.81913,-10.88862 l 11.27357,-22.43715 -11.93349,0 -10.50366,21.06233 q -4.06949,8.24895 -7.919,10.94361 -3.79452,2.69466 -10.39368,2.69466 l -12.09846,0 0,-34.7006 -11.10859,0 0,82.10458 25.07681,0 q 14.07822,0 21.00734,-5.88426 6.92912,-5.88425 6.92912,-17.76274 0,-7.75402 -3.62954,-12.86837 -3.57455,-5.11435 -10.44867,-7.0941 z m -27.82647,34.48063 0,-29.1463 13.96822,0 q 8.02899,0 12.09847,3.68453 4.12448,3.73952 4.12448,10.94361 0,7.20408 -4.12448,10.83362 -4.06948,3.68454 -12.09847,3.68454 l -13.96822,0 z" /><path
       inkscape:connector-curvature="0"
       id="path3212"
       style="font-variant:normal;font-weight:normal;font-stretch:normal;font-size:medium;font-family:Aller;-inkscape-font-specification:Aller;writing-mode:lr-tb;fill:#ffffff;fill-opacity:1;fill-rule:nonzero;stroke:none"
       d="m 692.81953,352.04538 51.91341,0 0,-9.34882 -40.80482,0 0,-24.30691 39.10004,0 0,-9.34881 -39.10004,0 0,-29.75123 41.7947,0 0,-9.34881 -52.90329,0 0,82.10458 z" /></g></svg>